<?xml version="1.0" encoding="utf-8"?>
<!-- Generator: Adobe Illustrator 21.1.0, SVG Export Plug-In . SVG Version: 6.00 Build 0)  -->
<svg version="1.1" id="Layer_1" xmlns="http://www.w3.org/2000/svg" xmlns:xlink="http://www.w3.org/1999/xlink" x="0px" y="0px"
	 viewBox="0 0 275.1 512.1" style="enable-background:new 0 0 275.1 512.1;" xml:space="preserve">
<g>
	<path d="M2.9,263.3c-4-4.2-3.9-10.9,0.3-14.9l254-245.5c4.2-4,10.9-3.9,14.9,0.3s3.9,10.9-0.3,14.9l-254,245.5c-2,2-4.7,3-7.3,3
		C7.7,266.6,5,265.6,2.9,263.3z"/>
	<path d="M257.2,509.1L3.2,263.7c-4.2-4-4.3-10.7-0.3-14.9s10.7-4.3,14.9-0.3l254,245.5c4.2,4,4.3,10.7,0.3,14.9
		c-2.1,2.1-4.8,3.2-7.6,3.2C261.9,512.1,259.2,511.1,257.2,509.1z"/>
</g>
</svg>
