<?xml version="1.0" encoding="utf-8"?>
<!-- Generator: Adobe Illustrator 21.1.0, SVG Export Plug-In . SVG Version: 6.00 Build 0)  -->
<svg version="1.1" id="Layer_1" xmlns="http://www.w3.org/2000/svg" xmlns:xlink="http://www.w3.org/1999/xlink" x="0px" y="0px"
	 viewBox="0 0 275.1 512.1" style="enable-background:new 0 0 275.1 512.1;" xml:space="preserve">
<g>
	<path d="M264.5,266.6c-2.6,0-5.3-1-7.3-3L3.2,18.1C-1,14.1-1.1,7.4,2.9,3.2s10.7-4.3,14.9-0.3l254,245.5c4.2,4,4.3,10.7,0.3,14.9
		C270,265.6,267.3,266.6,264.5,266.6z"/>
	<path d="M10.5,512.1c-2.8,0-5.5-1.1-7.6-3.2c-4-4.2-3.9-10.9,0.3-14.9l254-245.5c4.2-4,10.9-3.9,14.9,0.3s3.9,10.9-0.3,14.9
		l-254,245.4C15.8,511.1,13.1,512.1,10.5,512.1z"/>
</g>
</svg>
