<?xml version="1.0" encoding="utf-8"?>
<!-- Generator: Adobe Illustrator 21.1.0, SVG Export Plug-In . SVG Version: 6.00 Build 0)  -->
<svg version="1.1" id="Слой_1" xmlns:sketch="http://www.bohemiancoding.com/sketch/ns"
	 xmlns="http://www.w3.org/2000/svg" xmlns:xlink="http://www.w3.org/1999/xlink" x="0px" y="0px" viewBox="0 0 29.1 26.5"
	 style="enable-background:new 0 0 29.1 26.5;" xml:space="preserve">
<style type="text/css">
	.st0{fill:#FF0000;}
</style>
<title></title>
<desc></desc>
<g id="miu">
	<g id="Artboard-1" transform="translate(-503.000000, -335.000000)">
		<g id="slice" transform="translate(215.000000, 119.000000)">
		</g>
		<path id="business-suitcase-outline-stroke" class="st0" d="M520.7,348.5h7v8.1h-20.1v-8.1h7v-1h-8v8.9c0,1.1,1.1,1.1,1.1,1.1
			h19.8c0,0,1.1,0,1.1-1.1v-8.9h-8V348.5z M527.6,342.5h-20v4h-1v-3.9c0-1.1,1.1-1.1,1.1-1.1h19.8c0,0,1.1,0,1.1,1.1v3.9h-1V342.5z
			 M519.7,339.5h-4v2h-1v-1.8c0-1.3,1.2-1.3,1.2-1.3h3.7c0,0,1.2,0,1.2,1.3v1.8h-0.9V339.5z M515.6,348.5c0,0.6,0.4,1,1,1h2
			c0.6,0,1-0.4,1-1v-2c0-0.6-0.4-1-1-1h-2c-0.6,0-1,0.4-1,1V348.5z M516.6,346.5v2h2v-2H516.6z"/>
	</g>
</g>
</svg>
