<?xml version="1.0" encoding="utf-8"?>
<!-- Generator: Adobe Illustrator 21.1.0, SVG Export Plug-In . SVG Version: 6.00 Build 0)  -->
<svg version="1.1" id="Слой_1" fill="#fff" xmlns:sketch="http://www.bohemiancoding.com/sketch/ns"
	 xmlns="http://www.w3.org/2000/svg" xmlns:xlink="http://www.w3.org/1999/xlink" x="0px" y="0px" viewBox="0 0 16 16"
	 style="enable-background:new 0 0 16 16;" xml:space="preserve">
<title></title>
<g id="Icons_with_numbers">
	<g id="Group" transform="translate(-432.000000, -384.000000)">
		<path id="Rectangle_194" d="M446,395h-11l-1-7l0,0v0v-1l-2,0v-1h3v2h1h12L446,395z M442,397c0-0.6,0.4-1,1-1s1,0.4,1,1s-0.4,1-1,1
			S442,397.6,442,397z M437,397c0-0.6,0.4-1,1-1s1,0.4,1,1s-0.4,1-1,1S437,397.6,437,397z"/>
	</g>
</g>
</svg>
