<?xml version="1.0" encoding="utf-8"?>
<!-- Generator: Adobe Illustrator 21.1.0, SVG Export Plug-In . SVG Version: 6.00 Build 0)  -->
<svg version="1.1" id="Слой_1" fill="#ff0000" xmlns="http://www.w3.org/2000/svg" xmlns:xlink="http://www.w3.org/1999/xlink" x="0px" y="0px"
	 viewBox="0 0 28 20" style="enable-background:new 0 0 28 20;" xml:space="preserve">
<g>
	<polygon points="20.5,8 20.5,11 24.5,11 24.5,10 22.5,8 	"/>
	<path d="M1.5,9H3h1h5.5C9.8,9,10,8.8,10,8.5S9.8,8,9.5,8H4l0.1-1h-1L3,8H1.5C1.2,8,1,8.2,1,8.5S1.2,9,1.5,9z"/>
	<path d="M27.8,10.1l-4-4C23.8,6.1,23.6,6,23.5,6h-3.9l0.6-5.4c0-0.1,0-0.3-0.1-0.4S19.8,0,19.6,0H4C3.7,0,3.5,0.2,3.5,0.5L3.2,5
		H2.5C2.2,5,2,5.2,2,5.5S2.2,6,2.5,6h0.7h1h5.3C9.8,6,10,5.8,10,5.5S9.8,5,9.5,5H4.2l0.3-4h14.6l-1.5,15h0h-5.3
		c-0.4-0.6-1.1-1-1.9-1s-1.5,0.4-1.9,1H3.5l0.2-3h-1l-0.2,3.5c0,0.1,0,0.3,0.1,0.4S2.9,17,3,17h4.9c0,0.2-0.1,0.3-0.1,0.5
		c0,1.4,1.1,2.5,2.5,2.5s2.5-1.1,2.5-2.5c0-0.2,0-0.3-0.1-0.5h4.8H18h1.9c0,0.2-0.1,0.3-0.1,0.5c0,1.4,1.1,2.5,2.5,2.5
		s2.5-1.1,2.5-2.5c0-0.2,0-0.3-0.1-0.5h1.8c0.2,0,0.5-0.2,0.5-0.4l1-6C28,10.4,27.9,10.2,27.8,10.1z M10.3,19
		c-0.8,0-1.5-0.7-1.5-1.5S9.5,16,10.3,16s1.5,0.7,1.5,1.5S11.1,19,10.3,19z M22.3,19c-0.8,0-1.5-0.7-1.5-1.5s0.7-1.5,1.5-1.5
		s1.5,0.7,1.5,1.5S23.1,19,22.3,19z M26.1,16h-1.8c-0.5-0.6-1.1-1-1.9-1s-1.5,0.4-1.9,1h-1.8l0.9-9.3V7h3.8l3.6,3.6L26.1,16z"/>
	<path d="M3.8,12h5.7c0.3,0,0.5-0.2,0.5-0.5S9.8,11,9.5,11H3.8l0.1-1h-1l-0.1,1H0.5C0.2,11,0,11.2,0,11.5S0.2,12,0.5,12h2.3H3.8z"/>
</g>
</svg>
