<?xml version="1.0" encoding="utf-8"?>
<!-- Svg Vector Icons : http://www.onlinewebfonts.com/icon -->
<!DOCTYPE svg PUBLIC "-//W3C//DTD SVG 1.1//EN" "http://www.w3.org/Graphics/SVG/1.1/DTD/svg11.dtd">
<svg version="1.1" fill="#ff0000" xmlns="http://www.w3.org/2000/svg" xmlns:xlink="http://www.w3.org/1999/xlink" x="0px" y="0px" viewBox="0 0 1000 1000" enable-background="new 0 0 1000 1000" xml:space="preserve">
<metadata> Svg Vector Icons : http://www.onlinewebfonts.com/icon </metadata>
<g><path d="M782.9,278.3L465.8,595.5L297.2,425.8c-10.6-10.6-27.6-10.6-37.1,0c-10.6,10.6-10.6,27.6,0,37.1l187.7,187.7c5.3,5.3,11.7,7.4,19.1,7.4c6.4,0,13.8-2.1,19.1-7.4l336.2-335.2c10.6-10.6,10.6-27.6,0-37.1C811.5,268.8,793.5,267.7,782.9,278.3z"/><path d="M932.5,119.2l-18-9.5c-9.5-4.2-19.1-8.5-27.6-12.7c-6.4-3.2-13.8-5.3-20.2-8.5c-1.1,0-1.1-1.1-2.1-1.1c-3.2-1.1-7.4-3.2-10.6-4.2c-7.4-3.2-15.9-6.4-22.3-8.5c-10.6-3.2-21.2-7.4-31.8-10.6c-14.8-5.3-29.7-10.6-45.6-15.9C669.4,21.7,584.6,10,484.9,10c-1.1,0-1.1,0-2.1,0c-6.4,0-15.9,1.1-24.4,1.1c-10.6,1.1-20.2,1.1-27.6,2.1h-1.1c-9.5,1.1-18,2.1-27.6,3.2c-14.8,1.1-30.8,3.2-46.7,5.3C255.8,41.8,182.6,63,120,91.7c-5.3,3.2-14.8,6.4-23.3,10.6c-11.7,5.3-23.3,10.6-32.9,15.9c-1.1,0-3.2,1.1-3.2,2.1c-4.2,3.2-12.7,8.5-19.1,18c-4.2,6.4-6.4,13.8-7.4,19.1c0,2.1-1.1,4.2-1.1,6.4c0,4.2-5.3,388.2,18,447.6c8.5,21.2,17,44.5,29.7,65.8c21.2,37.1,48.8,70,72.1,97.6c52,56.2,119.8,108.2,201.5,155.9c37.1,21.2,75.3,40.3,112.4,57.3c3.2,1.1,7.4,2.1,10.6,2.1h36.1c4.2,0,7.4-1.1,10.6-2.1c5.3-2.1,11.7-5.3,18-7.4c6.4-3.2,12.7-5.3,19.1-8.5c30.8-13.8,58.3-29.7,85.9-44.5c0,0,1.1,0,1.1-1.1c8.5-5.3,15.9-9.5,24.4-14.8c7.4-5.3,15.9-9.5,24.4-14.8c7.4-5.3,14.8-9.5,22.3-14.8c6.4-4.2,13.8-9.5,20.2-13.8c1.1,0,1.1-1.1,2.1-2.1c2.1-1.1,3.2-2.1,5.3-3.2c3.2-2.1,6.4-5.3,10.6-8.5c8.5-5.3,19.1-13.8,28.6-23.3c1.1-1.1,3.2-2.1,4.2-3.2c3.2-2.1,6.4-4.2,9.5-8.5c6.4-6.4,12.7-11.7,19.1-18c6.4-6.4,12.7-12.7,20.2-19.1c53-56.2,87-112.4,108.2-176.1c4.2-13.8-3.2-28.6-17-32.9c-13.8-4.2-28.6,3.2-32.9,17c-18,56.2-48.8,106.1-95.5,155.9c-6.4,6.4-12.7,11.7-19.1,18c-6.4,6.4-12.7,12.7-19.1,19.1c-1.1,1.1-3.2,2.1-4.2,3.2c-3.2,2.1-6.4,4.2-9.5,8.5c-5.3,5.3-13.8,11.7-22.3,18c-1.1,1.1-3.2,2.1-4.2,3.2c-1.1,1.1-3.2,3.2-6.4,4.2c-2.1,1.1-4.2,3.2-5.3,4.2c-7.4,4.2-13.8,9.5-21.2,13.8c-6.4,4.2-13.8,9.5-20.2,13.8c-8.5,5.3-15.9,10.6-24.4,14.8c-7.4,5.3-15.9,9.5-22.3,13.8c-26.5,14.8-54.1,29.7-82.7,42.4c-5.3,2.1-11.7,5.3-18,7.4c-4.2,2.1-8.5,4.2-12.7,5.3h-24.4C452,920,417,903,383.1,882.9c-77.4-44.5-141.1-93.3-188.8-145.3c-23.3-26.5-46.7-55.2-65.8-88c-10.6-18-18-39.2-25.5-59.4c-13.8-36.1-15.9-297-13.8-425.3v-1.1c1.1,0,1.1-1.1,2.1-2.1c8.5-4.2,19.1-9.5,29.7-13.8c9.5-4.2,19.1-8.5,24.4-11.7c58.3-26.5,127.3-46.7,222.7-65.8c12.7-2.1,26.5-3.2,41.4-5.3c9.5-1.1,19.1-2.1,28.6-3.2c7.4-1.1,17-1.1,26.5-2.1c8.5,0,17-1.1,24.4-1.1c93.3,0,172.9,11.7,251.4,36.1c14.8,5.3,29.7,9.5,44.5,14.8c10.6,4.2,22.3,7.4,32.9,11.7c5.3,2.1,12.7,5.3,20.2,7.4c4.2,2.1,8.5,3.2,11.7,4.2c7.4,3.2,13.8,6.4,21.2,9.5c8.5,4.2,17,7.4,24.4,10.6l18,9.5c0,0,0,0,1.1,0V413c0,14.8,11.7,26.5,26.5,26.5s26.5-11.7,26.5-26.5V167C962.2,146.8,950.5,127.7,932.5,119.2z"/></g>
</svg>