<?xml version="1.0" encoding="utf-8"?>
<!-- Generator: Adobe Illustrator 21.1.0, SVG Export Plug-In . SVG Version: 6.00 Build 0)  -->
<svg version="1.1" id="Layer_3_copy" xmlns="http://www.w3.org/2000/svg" xmlns:xlink="http://www.w3.org/1999/xlink" x="0px"
	 y="0px" viewBox="0 0 72.7 38" style="enable-background:new 0 0 72.7 38;" fill="#ff0000" xml:space="preserve">
<title></title>
<path d="M72.7,18.8c-0.2-3.6-2.8-6.7-6.3-7.4V8c0-4.5-4-8-8.5-8h-43c-4.5,0-8.5,3.4-8.5,8v3.5c-3.6,0.7-6.2,3.8-6.4,7.4
	c0,2.4,1.2,4.6,3.2,5.9L6.9,38h4.5v-1h50v1h4.2l3.7-13C71.4,23.7,72.7,21.3,72.7,18.8z M70.5,18.8c0,3-2.5,5.5-5.5,5.5
	s-5.5-2.5-5.5-5.5s2.5-5.5,5.5-5.5C68.1,13.3,70.6,15.8,70.5,18.8L70.5,18.8z M48.3,26L47,23h11.7c0.7,0.9,1.6,1.6,2.6,2.1V26H48.3z
	 M11.4,25.2c1-0.5,1.9-1.3,2.6-2.2h11.7l-1.3,3h-13V25.2z M46.3,28v7h-20v-7H46.3z M26.5,26l1.3-3h17l1.3,3H26.5z M28.4,21V2h16v19
	H28.4z M64.3,8v3.5c-3.8,0.4-6.7,3.7-6.7,7.5c0,0.7,0,1.4,0.1,2H46.3V2h11.5C61.3,2,64.3,4.5,64.3,8z M14.9,2h11.5v19H14.9
	c0.1-0.7,0.2-1.4,0.1-2.1c0.1-3.8-2.8-7.1-6.6-7.5V8C8.4,4.5,11.4,2,14.9,2z M2.1,18.8c0-3,2.5-5.5,5.5-5.5s5.5,2.5,5.5,5.5
	s-2.5,5.5-5.5,5.5C4.6,24.3,2.1,21.9,2.1,18.8z M8.4,36L5.6,25.9c0.6,0.2,1.3,0.3,1.9,0.3c0.7,0,1.8,0,1.8-0.2V36H8.4z M11.4,28h13
	v7h-13V28z M48.3,35v-7h13v7H48.3z M64.1,36h-0.7V26c0,0.2,1.2,0.3,1.9,0.3c0.6,0,1.1-0.1,1.7-0.3L64.1,36z"/>
</svg>
