<?xml version="1.0" ?><svg height="32" id="svg2" version="1.1" viewBox="0 0 32 32.000001" width="32" xmlns="http://www.w3.org/2000/svg" xmlns:cc="http://creativecommons.org/ns#" xmlns:dc="http://purl.org/dc/elements/1.1/" xmlns:inkscape="http://www.inkscape.org/namespaces/inkscape" xmlns:rdf="http://www.w3.org/1999/02/22-rdf-syntax-ns#" xmlns:sodipodi="http://sodipodi.sourceforge.net/DTD/sodipodi-0.dtd" xmlns:svg="http://www.w3.org/2000/svg"><defs id="defs4"><pattern height="6" id="EMFhbasepattern" patternUnits="userSpaceOnUse" width="6" x="0" y="0"/><pattern height="6" id="EMFhbasepattern-3" patternUnits="userSpaceOnUse" width="6" x="0" y="0"/><pattern height="6" id="EMFhbasepattern-8" patternUnits="userSpaceOnUse" width="6" x="0" y="0"/><pattern height="6" id="EMFhbasepattern-2" patternUnits="userSpaceOnUse" width="6" x="0" y="0"/></defs><g id="layer1" transform="translate(0,-1020.3622)"><path d="M 18.769531 4 C 17.749235 4 17 4.942 17 6 C 17 6.583984 17.233313 7.1256258 17.609375 7.5 C 17.233884 7.874368 17 8.4165678 17 9 C 17 9.583984 17.233313 10.125626 17.609375 10.5 C 17.233884 10.874368 17 11.416568 17 12 C 17 12.587555 17.23701 13.131345 17.617188 13.505859 C 17.468307 13.652944 17.347117 13.823156 17.25 14.013672 C 15.378147 14.070795 13.687601 14.813173 12.408203 16 L 5.7695312 16 C 4.7492371 16 4 16.942 4 18 C 4 18.583984 4.2333125 19.125626 4.609375 19.5 C 4.2338836 19.874368 4 20.416568 4 21 C 4 21.583984 4.2333125 22.125626 4.609375 22.5 C 4.2338836 22.874368 4 23.416568 4 24 C 4 24.583984 4.2333125 25.125626 4.609375 25.5 C 4.2338836 25.874368 4 26.416568 4 27 C 4 28.0581 4.749237 29 5.7695312 29 L 17.042969 29 A 0.50004997 0.50004997 0 0 0 17.167969 28.984375 C 17.272302 28.988693 17.375051 29 17.480469 29 C 17.626697 29 17.769855 28.986788 17.914062 28.978516 A 0.50004997 0.50004997 0 0 0 18.0625 29 L 27.230469 29 C 28.250763 29 29 28.0581 29 27 C 29 26.416568 28.766116 25.874368 28.390625 25.5 C 28.766687 25.125626 29 24.583984 29 24 C 29 23.416568 28.766116 22.874368 28.390625 22.5 C 28.766687 22.125626 29 21.583984 29 21 C 29 20.416568 28.766116 19.874368 28.390625 19.5 C 28.766687 19.125626 29 18.583984 29 18 C 29 17.416568 28.766116 16.874368 28.390625 16.5 C 28.766687 16.125626 29 15.583984 29 15 C 29 14.416568 28.766116 13.874368 28.390625 13.5 C 28.766687 13.125626 29 12.583984 29 12 C 29 11.416568 28.766116 10.874368 28.390625 10.5 C 28.766687 10.125626 29 9.583984 29 9 C 29 8.4165678 28.766116 7.874368 28.390625 7.5 C 28.766687 7.1256258 29 6.583984 29 6 C 29 4.942 28.250765 4 27.230469 4 L 18.769531 4 z M 18.769531 5 L 27.230469 5 C 27.61648 5 28 5.3961 28 6 C 28 6.604 27.61648 7 27.230469 7 L 18.769531 7 C 18.38352 7 18 6.604 18 6 C 18 5.3961 18.38352 5 18.769531 5 z M 18.769531 8 L 27.230469 8 C 27.61648 8 28 8.3961 28 9 C 28 9.604 27.61648 10 27.230469 10 L 18.769531 10 C 18.38352 10 18 9.604 18 9 C 18 8.3961 18.38352 8 18.769531 8 z M 18.769531 11 L 27.230469 11 C 27.61648 11 28 11.3961 28 12 C 28 12.604 27.61648 13 27.230469 13 L 18.769531 13 C 18.38352 13 18 12.604 18 12 C 18 11.3961 18.38352 11 18.769531 11 z M 18.769531 14 L 27.230469 14 C 27.616489 14 28 14.3961 28 15 C 28 15.604 27.616489 16 27.230469 16 L 22.548828 16 C 21.449382 14.980118 20.046441 14.289052 18.486328 14.078125 C 18.576693 14.031301 18.671013 14 18.769531 14 z M 17.480469 15.001953 C 21.082524 15.001953 24 17.9094 24 21.5 C 24 25.0924 21.082541 28 17.480469 28 C 13.877241 28 11 25.096 11 21.5 C 11 17.9057 13.877258 15.001953 17.480469 15.001953 z M 5.7695312 17 L 11.507812 17 C 11.054945 17.60332 10.69155 18.275379 10.435547 19 L 5.7695312 19 C 5.3835255 19 5 18.604 5 18 C 5 17.3961 5.3835255 17 5.7695312 17 z M 23.449219 17 L 27.230469 17 C 27.616474 17 28 17.3961 28 18 C 28 18.604 27.616474 19 27.230469 19 L 24.525391 19 C 24.2684 18.275307 23.902589 17.60347 23.449219 17 z M 14.994141 18.001953 L 14.994141 26.001953 L 15.994141 26.001953 L 15.994141 23.392578 C 16.40648 23.766997 16.918249 24.001953 17.498047 24.001953 C 18.941349 24.001953 20.000036 22.599153 20 21.001953 C 19.999985 19.404753 18.941309 18.001953 17.498047 18.001953 C 16.918265 18.001953 16.406475 18.234956 15.994141 18.609375 L 15.994141 18.001953 L 14.994141 18.001953 z M 17.498047 19.001953 C 18.266571 19.001953 18.999989 19.837653 19 21.001953 C 19.000026 22.166253 18.266593 23.001953 17.498047 23.001953 C 16.7295 23.001953 15.994114 22.166253 15.994141 21.001953 C 15.994151 19.837653 16.729523 19.001953 17.498047 19.001953 z M 5.7695312 20 L 10.150391 20 C 10.05232 20.484384 10 20.987099 10 21.5 C 10 21.669081 10.014388 21.833656 10.025391 22 L 5.7695312 22 C 5.3835255 22 5 21.604 5 21 C 5 20.3961 5.3835255 20 5.7695312 20 z M 24.802734 20 L 27.230469 20 C 27.616474 20 28 20.3961 28 21 C 28 21.604 27.616474 22 27.230469 22 L 24.974609 22 C 24.985685 21.833948 25 21.668798 25 21.5 A 0.50004994 0.50004994 0 0 0 24.960938 21.304688 A 0.50004994 0.50004994 0 0 0 24.958984 21.304688 C 24.946652 20.85896 24.889406 20.423498 24.802734 20 z M 5.7695312 23 L 10.150391 23 C 10.293904 23.708121 10.539694 24.379102 10.867188 25 L 5.7695312 25 C 5.3835255 25 5 24.604 5 24 C 5 23.3961 5.3835255 23 5.7695312 23 z M 24.849609 23 L 27.230469 23 C 27.616474 23 28 23.3961 28 24 C 28 24.604 27.616474 25 27.230469 25 L 24.125 25 C 24.455365 24.379269 24.704575 23.708199 24.849609 23 z M 20 23.017578 L 20 24.017578 L 20.992188 24.017578 L 20.992188 23.017578 L 20 23.017578 z M 11.482422 25.964844 C 12.093915 26.789539 12.866352 27.484785 13.759766 28 L 5.7695312 28 C 5.3835255 28 5 27.604 5 27 C 5 26.3961 5.3835255 26 5.7695312 26 L 11.292969 26 A 0.50004997 0.50004997 0 0 0 11.482422 25.964844 z M 23.480469 26 L 27.230469 26 C 27.616474 26 28 26.3961 28 27 C 28 27.604 27.616474 28 27.230469 28 L 21.212891 28 C 22.098531 27.491962 22.867984 26.809929 23.480469 26 z " id="path5430-97-3-2-31" style="color:#ff0000;font-style:normal;font-variant:normal;font-weight:normal;font-stretch:normal;font-size:medium;line-height:normal;font-family:sans-serif;text-indent:0;text-align:start;text-decoration:none;text-decoration-line:none;text-decoration-style:solid;text-decoration-color:#ff0000;letter-spacing:normal;word-spacing:normal;text-transform:none;direction:ltr;block-progression:tb;writing-mode:lr-tb;baseline-shift:baseline;text-anchor:start;white-space:normal;clip-rule:nonzero;display:inline;overflow:visible;visibility:visible;opacity:1;isolation:auto;mix-blend-mode:normal;color-interpolation:sRGB;color-interpolation-filters:linearRGB;solid-color:#ff0000;solid-opacity:1;fill:#ff0000;fill-opacity:1;fill-rule:nonzero;stroke:none;stroke-width:0.99999988;stroke-linecap:round;stroke-linejoin:round;stroke-miterlimit:34.17825699;stroke-dasharray:none;stroke-dashoffset:0;stroke-opacity:1;color-rendering:auto;image-rendering:auto;shape-rendering:auto;text-rendering:auto;enable-background:accumulate" transform="translate(0,1020.3622)"/></g></svg>