<svg xmlns="http://www.w3.org/2000/svg" xmlns:xlink="http://www.w3.org/1999/xlink" version="1.1" x="0px" y="0px" viewBox="0 0 32 40" fill="#ff0000" enable-background="new 0 0 32 32" xml:space="preserve"><g><path d="M26,26.5c-0.1279297,0-0.2558594-0.0488281-0.3535156-0.1464844l-6-6   c-0.1953125-0.1953125-0.1953125-0.5117188,0-0.7070312s0.5117188-0.1953125,0.7070312,0l6,6   c0.1953125,0.1953125,0.1953125,0.5117188,0,0.7070312C26.2558594,26.4511719,26.1279297,26.5,26,26.5z"/><path d="M29.7070923,24.2929077l-8-8c-0.1395874-0.1396484-0.3173828-0.2348022-0.5109863-0.2734985l-1.8462524-0.3692627   l-0.3692627-1.8462524c-0.0723267-0.3616333-0.3378296-0.6541138-0.6907959-0.7609863   c-0.0953369-0.0288696-0.1929321-0.0429688-0.2896729-0.0429688c-0.2614136,0-0.5169067,0.1026001-0.7072144,0.2929077   l-0.7928467,0.7929077L9,6.5857544V6c0-0.2652588-0.1053467-0.5195923-0.2929077-0.7071533l-3-3   C5.5118408,2.0975952,5.2559204,2,5,2S4.4881592,2.0975952,4.2929077,2.2928467l-2,2   c-0.390564,0.390564-0.390564,1.0237427,0,1.4142456l3,3C5.4804077,8.8946533,5.7348022,9,6,9h0.5857544l7.500061,7.5   l-0.7929077,0.7929077c-0.2608032,0.2607422-0.3568726,0.6439209-0.25,0.9968872s0.399353,0.6184692,0.7609863,0.6907959   l1.8462524,0.3692627l0.3692627,1.8462524c0.0387573,0.1936035,0.1339111,0.3713989,0.2734985,0.5109863l8,8   C24.4804077,29.8946533,24.7348022,30,25,30c2.5700684,0,5-2.4299316,5-5   C30,24.7347412,29.8946533,24.4804077,29.7070923,24.2929077z M3,5l2-2l0.6464844,0.6464844l-2,2L3,5z M7,8H6L4.3535156,6.3535156   l2-2L8,6v1l7.7929077,7.7929077l-1,1L7,8z M25,29l-8-8l-0.5-2.5L14,18l4-4l0.5,2.5L21,17l8,8C29,27,27,29,25,29z"/></g></svg>